<?xml version="1.0" standalone="no"?>
<!DOCTYPE svg PUBLIC "-//W3C//DTD SVG 20010904//EN"
 "http://www.w3.org/TR/2001/REC-SVG-20010904/DTD/svg10.dtd">
<svg version="1.0" xmlns="http://www.w3.org/2000/svg"
 width="720.000000pt" height="728.000000pt" viewBox="0 0 720.000000 728.000000"
 preserveAspectRatio="xMidYMid meet">

<g transform="translate(0.000000,728.000000) scale(0.100000,-0.100000)"
fill="#000000" stroke="none">
<path d="M2955 7271 c-38 -4 -95 -14 -125 -23 -49 -15 -155 -43 -265 -71 -104
-25 -337 -120 -505 -203 -174 -88 -583 -323 -644 -371 -146 -116 -436 -408
-623 -628 -159 -187 -380 -578 -517 -913 -25 -62 -55 -129 -65 -151 -19 -36
-27 -62 -66 -221 -9 -36 -25 -90 -35 -120 -11 -30 -22 -89 -26 -130 -3 -41
-16 -97 -28 -125 -21 -49 -21 -60 -21 -635 0 -576 0 -586 21 -635 12 -27 25
-79 29 -115 4 -35 14 -83 22 -105 8 -22 20 -72 28 -110 7 -39 25 -97 40 -130
15 -33 52 -132 82 -220 37 -109 86 -221 154 -356 206 -404 339 -572 779 -987
260 -245 494 -414 730 -528 140 -69 385 -174 403 -174 7 0 78 -20 158 -46 211
-66 476 -133 624 -156 168 -26 694 -37 898 -18 163 15 357 63 667 166 492 164
960 442 1360 809 71 65 166 159 212 209 120 130 311 365 375 460 66 99 304
578 329 661 9 33 23 69 30 80 7 11 19 49 27 85 28 125 49 205 67 250 10 25 21
72 24 105 4 33 16 87 28 120 48 143 48 1138 0 1276 -11 30 -23 80 -27 110 -3
30 -15 83 -26 119 -10 36 -25 90 -33 120 -67 254 -119 390 -257 665 -205 411
-321 574 -649 909 -348 355 -529 486 -1020 735 -85 43 -175 86 -200 94 -25 9
-92 34 -150 57 -144 56 -236 85 -365 117 l-110 28 -630 1 c-346 1 -661 -2
-700 -5z m815 -261 c47 -4 148 -13 225 -19 85 -7 162 -19 195 -31 30 -11 78
-22 105 -26 28 -3 70 -15 95 -25 25 -9 83 -25 128 -34 46 -9 114 -27 150 -41
37 -14 81 -29 97 -34 110 -34 584 -315 797 -473 148 -109 446 -401 552 -541
21 -27 50 -75 66 -106 16 -31 57 -99 93 -151 35 -52 83 -127 107 -168 77 -134
211 -405 225 -457 7 -28 23 -70 34 -92 12 -23 21 -48 21 -56 0 -8 11 -38 25
-68 14 -29 25 -69 25 -89 0 -22 9 -48 25 -69 14 -19 25 -47 25 -64 0 -16 7
-66 15 -110 47 -258 69 -735 46 -996 -21 -239 -101 -591 -181 -800 -28 -74
-62 -162 -74 -195 -12 -34 -42 -97 -66 -140 -24 -44 -68 -130 -99 -191 -69
-135 -119 -206 -252 -354 -151 -167 -473 -488 -554 -552 -104 -82 -308 -224
-410 -285 -146 -88 -480 -248 -618 -297 -70 -25 -185 -60 -255 -78 l-127 -33
-535 0 -535 0 -267 67 c-185 47 -322 89 -450 137 -197 74 -405 175 -453 220
-16 16 -55 42 -85 59 -47 27 -134 92 -329 248 -59 46 -501 465 -501 474 0 4
-23 33 -51 65 -28 33 -60 77 -71 99 -23 51 -29 60 -107 175 -35 51 -72 113
-82 136 -10 23 -26 48 -34 55 -8 7 -15 17 -15 22 0 6 -25 66 -55 135 -31 69
-67 164 -81 212 -13 47 -33 107 -44 133 -11 26 -20 61 -20 79 0 17 -11 57 -24
88 -13 31 -28 79 -34 106 -5 28 -19 86 -32 130 -18 68 -22 114 -27 310 -8 366
9 722 47 950 20 127 37 198 49 215 10 14 21 46 24 73 4 26 14 61 22 77 9 17
20 62 24 100 5 39 14 76 19 83 5 7 17 37 26 68 9 31 22 62 30 68 8 7 17 23 20
36 4 14 26 58 50 98 41 70 281 446 352 552 104 156 514 587 634 668 41 27 93
64 115 82 22 18 63 44 90 58 28 14 67 39 89 56 21 17 44 31 51 31 7 0 18 6 24
14 15 18 246 133 286 142 17 4 35 10 40 14 6 4 26 11 45 15 19 4 48 14 63 22
27 14 105 37 232 69 33 8 94 23 135 34 41 11 91 22 110 25 19 2 105 16 190 29
135 22 256 38 380 49 66 7 185 5 270 -3z"/>
<path d="M2220 5960 c-47 -11 -138 -46 -158 -62 -119 -92 -282 -265 -309 -328
-9 -19 -24 -53 -34 -75 -10 -22 -21 -76 -25 -120 l-6 -80 -78 -80 c-102 -105
-110 -119 -110 -182 l0 -52 145 6 145 6 0 -32 c0 -20 -14 -52 -40 -90 -43 -63
-150 -280 -150 -304 0 -8 -11 -48 -24 -88 -17 -53 -26 -110 -31 -200 -4 -70
-10 -131 -14 -137 -4 -6 -49 -14 -101 -17 -160 -10 -180 -14 -180 -35 0 -10 4
-21 9 -24 5 -4 25 -39 45 -79 41 -82 45 -124 17 -194 -10 -26 -21 -68 -25 -92
-4 -24 -14 -57 -22 -73 -8 -16 -20 -57 -25 -90 -5 -33 -19 -78 -29 -99 -11
-21 -20 -48 -20 -59 0 -11 -11 -47 -25 -80 -14 -33 -25 -74 -25 -92 0 -18 -11
-55 -25 -83 -13 -27 -25 -66 -25 -86 0 -20 -7 -56 -15 -79 -8 -23 -15 -56 -15
-73 0 -16 -11 -55 -24 -86 -13 -31 -28 -74 -34 -96 -12 -45 -35 -118 -59 -185
-9 -25 -22 -74 -30 -109 -7 -35 -20 -75 -27 -90 -23 -44 -28 -93 -12 -121 8
-14 20 -35 25 -47 5 -11 14 -24 20 -27 5 -4 26 -39 45 -80 63 -131 306 -373
442 -440 43 -21 91 -45 106 -53 48 -25 195 -35 413 -30 240 5 246 7 421 93
115 57 123 63 250 191 102 101 139 146 163 195 41 84 49 123 25 132 -9 4 -148
9 -308 12 -160 2 -328 7 -373 10 l-83 6 -9 36 c-5 21 -12 66 -16 102 -3 35
-15 83 -26 107 -10 23 -19 60 -19 81 0 22 -11 74 -25 116 -14 42 -25 88 -25
102 0 13 -9 51 -20 84 -11 33 -24 91 -30 130 -6 39 -19 96 -29 128 -20 61 -55
310 -49 356 3 26 8 22 128 -85 69 -61 136 -119 150 -127 14 -9 54 -35 90 -58
36 -23 94 -56 130 -74 36 -18 92 -51 125 -74 33 -22 83 -53 110 -67 58 -29
121 -67 276 -162 60 -37 130 -77 154 -88 25 -12 85 -60 135 -107 98 -94 106
-112 70 -163 -12 -15 -27 -53 -35 -82 -8 -30 -36 -98 -63 -153 -28 -54 -55
-117 -61 -140 -6 -22 -20 -49 -31 -59 -11 -10 -20 -24 -20 -30 0 -7 -9 -24
-20 -38 -11 -14 -20 -33 -20 -42 0 -19 -30 -92 -95 -230 -23 -49 -45 -101 -49
-115 -4 -14 -17 -50 -30 -80 -13 -30 -31 -77 -39 -105 -8 -27 -20 -63 -26 -80
-55 -160 -66 -204 -66 -275 0 -126 46 -173 225 -231 96 -31 256 -62 271 -53 5
3 9 112 9 242 0 271 14 484 34 533 8 19 19 73 24 120 6 47 20 109 31 137 12
29 21 64 21 78 0 13 11 50 24 82 13 31 26 73 30 93 8 45 26 61 62 57 22 -2 30
-10 37 -37 4 -18 7 -176 4 -350 -3 -270 -6 -322 -21 -360 -22 -57 -38 -219
-43 -447 l-4 -181 113 -6 c62 -4 166 -7 231 -7 l117 0 0 123 c-1 67 -5 304
-10 527 -7 359 -11 416 -30 505 -12 55 -28 111 -35 125 -7 14 -18 52 -24 85
-11 60 -132 325 -159 347 -7 7 -22 29 -33 50 -42 83 -293 317 -474 443 -49 34
-139 91 -200 125 -60 35 -123 73 -140 85 -16 12 -64 41 -105 65 -208 121 -297
189 -438 335 -134 140 -195 223 -236 325 -10 25 -27 64 -38 87 -29 64 -44 303
-30 472 11 130 11 133 64 238 53 106 86 149 227 296 l66 68 -55 46 c-106 89
-189 181 -200 221 -14 53 2 132 45 227 27 59 51 91 107 145 91 89 148 117 264
131 91 11 233 5 314 -12 64 -14 154 -71 233 -148 69 -66 157 -173 157 -190 0
-5 11 -22 24 -38 13 -16 41 -71 61 -123 38 -97 40 -117 20 -225 -5 -29 -2 -32
77 -78 165 -95 269 -179 459 -367 182 -181 240 -253 294 -361 15 -30 35 -63
45 -74 21 -25 106 -212 127 -280 9 -27 21 -61 28 -75 22 -42 85 -239 85 -264
0 -13 8 -43 19 -67 10 -24 22 -78 26 -119 4 -41 11 -83 17 -93 9 -18 10 -18
36 -1 15 10 73 44 129 75 56 32 122 71 146 88 62 42 228 202 322 310 84 96
107 132 177 271 l43 85 0 300 0 300 -28 68 c-46 110 -21 122 71 33 50 -47 122
-188 146 -282 12 -47 16 -116 16 -287 l0 -225 -31 -58 c-17 -33 -42 -90 -55
-128 -34 -100 -76 -154 -241 -318 -131 -129 -168 -159 -318 -257 -93 -61 -177
-117 -185 -124 -8 -8 -30 -19 -47 -25 -50 -17 -123 -71 -134 -99 -5 -13 -9
-56 -9 -94 0 -86 6 -87 115 -18 44 27 94 56 112 64 18 8 63 35 100 58 37 24
114 69 170 101 56 31 108 62 116 69 18 17 45 33 92 57 22 11 89 65 149 121
148 136 175 157 187 138 15 -25 10 -88 -15 -162 -13 -40 -27 -95 -30 -124 -4
-28 -13 -68 -22 -88 -8 -20 -21 -84 -29 -143 -25 -173 -35 -223 -62 -286 -18
-43 -31 -111 -48 -239 -30 -229 -22 -219 -187 -228 -68 -4 -241 -8 -385 -8
l-263 -1 0 -43 c0 -79 40 -139 199 -297 116 -116 159 -151 211 -177 118 -57
194 -83 274 -94 94 -13 497 -6 541 9 55 19 142 58 166 73 13 9 40 21 59 27 44
15 245 196 319 286 66 81 134 213 152 290 10 46 10 67 1 102 -7 24 -12 57 -12
72 0 15 -11 51 -25 80 -14 30 -25 61 -25 71 0 9 -9 33 -20 54 -11 21 -27 74
-36 117 -8 43 -21 95 -29 114 -8 20 -15 46 -15 58 0 13 -9 41 -21 62 -11 21
-25 66 -30 99 -6 33 -17 73 -25 88 -8 16 -24 75 -35 132 -11 56 -31 136 -44
177 -56 177 -75 246 -75 268 0 12 -9 40 -20 61 -37 74 -36 111 3 193 46 96 54
134 30 146 -10 5 -67 12 -127 15 -59 3 -111 9 -114 12 -3 3 -11 66 -18 140 -6
75 -17 141 -23 148 -6 8 -17 46 -26 86 -8 39 -22 85 -30 101 -8 16 -15 34 -15
41 0 22 -63 143 -107 205 -24 34 -46 76 -49 93 -9 46 21 54 154 41 155 -15
142 -18 142 44 0 60 -16 86 -132 211 -55 60 -55 60 -63 140 -4 44 -13 91 -20
105 -7 14 -28 56 -46 93 -28 56 -58 92 -165 197 -112 109 -138 130 -185 145
-30 10 -60 23 -68 29 -23 18 -434 20 -496 2 -169 -49 -271 -113 -407 -255
-167 -174 -191 -207 -274 -370 -117 -231 -166 -273 -281 -242 -65 18 -94 49
-167 183 -107 195 -135 235 -235 346 -139 154 -254 250 -366 305 l-95 47 -212
-1 c-117 -1 -229 -5 -248 -9z m2701 -264 c99 -23 237 -141 298 -256 36 -67 65
-186 55 -228 -15 -61 -153 -193 -263 -250 -31 -16 -69 -37 -86 -46 -16 -9 -38
-16 -48 -16 -32 0 -57 -20 -57 -44 0 -13 11 -48 24 -77 32 -69 47 -189 47
-382 1 -178 -8 -220 -79 -370 -54 -114 -132 -216 -242 -321 -146 -138 -190
-140 -190 -9 0 36 -8 74 -20 101 -10 23 -22 59 -25 80 -4 20 -15 55 -25 77
-10 22 -33 78 -50 125 -18 47 -43 107 -56 134 -13 28 -24 57 -24 66 0 8 -6 24
-14 35 -7 11 -17 31 -21 45 -7 26 -56 136 -81 181 -7 15 -20 55 -28 90 -8 35
-22 84 -31 109 -22 58 -17 268 7 315 8 17 18 46 21 66 7 48 100 233 142 284
202 248 338 321 580 310 61 -3 135 -11 166 -19z m-3386 -1825 c3 -6 12 -43 19
-83 8 -40 22 -111 31 -158 9 -47 27 -139 40 -205 41 -207 75 -359 89 -396 8
-20 20 -65 26 -100 6 -35 20 -91 30 -124 11 -33 27 -114 35 -180 19 -137 25
-169 54 -279 26 -97 28 -171 5 -180 -9 -3 -204 -6 -435 -6 l-419 0 0 50 c0 30
8 66 19 88 11 21 22 56 26 77 4 22 16 62 27 89 11 26 28 100 39 164 11 63 27
128 35 144 9 17 21 59 29 94 7 36 22 88 33 117 37 98 53 152 66 212 7 33 19
74 28 90 8 17 18 47 22 67 4 21 16 57 26 80 11 24 20 55 20 70 0 15 10 53 21
84 12 31 27 82 34 113 7 31 21 79 31 106 9 28 19 56 20 63 4 14 40 16 49 3z
m4150 -1 c4 -6 17 -51 31 -101 13 -49 30 -102 38 -118 9 -16 25 -64 36 -107
12 -43 25 -83 30 -89 4 -5 15 -45 24 -88 9 -43 20 -86 25 -96 5 -9 17 -48 26
-86 8 -38 20 -74 26 -81 5 -7 21 -70 34 -142 12 -71 32 -151 43 -178 11 -27
23 -69 26 -92 4 -24 15 -61 26 -83 11 -21 20 -51 20 -66 0 -15 11 -50 23 -78
13 -27 26 -70 30 -95 3 -25 15 -66 26 -90 11 -25 21 -64 21 -87 l0 -43 -419 0
c-386 0 -420 1 -441 18 -25 20 -26 8 30 297 18 88 38 197 46 243 8 46 21 96
29 112 8 16 15 46 15 67 1 21 10 63 20 93 11 30 25 93 30 138 6 46 17 97 26
114 8 16 21 64 29 106 7 42 19 91 25 107 7 17 16 71 21 120 4 50 17 116 29
147 11 32 20 75 20 97 0 22 3 46 6 55 7 18 39 22 49 6z"/>
<path d="M4560 5422 c0 -18 93 -114 140 -146 20 -13 49 -16 150 -15 145 0 193
12 199 49 2 20 -9 36 -55 77 l-59 53 -187 0 c-174 0 -188 -1 -188 -18z"/>
<path d="M2183 5384 c-35 -31 -63 -61 -63 -68 0 -7 18 -27 39 -44 l40 -32 122
0 122 0 88 89 c49 48 89 93 89 100 0 8 -54 11 -187 11 l-188 0 -62 -56z"/>
<path d="M2462 4714 c-98 -88 -107 -111 -107 -280 0 -138 1 -142 28 -181 36
-52 282 -293 372 -365 39 -30 111 -77 160 -103 50 -26 122 -68 161 -92 39 -23
74 -43 78 -43 6 0 87 -50 269 -167 103 -66 439 -387 511 -488 61 -85 145 -237
159 -286 7 -24 18 -44 25 -47 9 -3 12 42 12 195 0 212 -16 325 -60 427 -11 26
-27 77 -35 114 -9 36 -19 70 -24 76 -5 6 -16 34 -24 61 -27 90 -87 236 -138
339 -80 160 -174 280 -389 495 -204 205 -344 309 -480 359 -106 38 -128 42
-295 42 l-160 0 -63 -56z"/>
<path d="M2093 4548 c-37 -47 -59 -263 -43 -420 16 -153 27 -188 93 -300 42
-71 88 -129 179 -223 67 -70 147 -146 177 -169 70 -53 250 -160 379 -225 119
-60 253 -140 342 -204 36 -26 82 -59 103 -74 116 -84 437 -453 437 -503 0 -10
5 -22 10 -25 32 -20 114 -230 162 -415 l30 -115 8 -586 c4 -322 11 -595 14
-607 8 -24 -1 -24 171 9 257 50 392 103 415 165 18 46 11 118 -21 209 -43 123
-213 467 -359 723 l-121 212 -11 208 c-9 198 -11 210 -39 267 -16 33 -42 96
-59 140 -16 44 -57 128 -92 185 -54 92 -83 127 -237 281 -153 153 -201 194
-280 244 -9 6 -50 33 -91 61 -41 28 -96 60 -122 72 -25 11 -74 39 -108 62 -34
23 -92 56 -128 72 -37 17 -78 39 -92 49 -14 11 -72 51 -130 89 -58 38 -144
103 -192 145 -94 83 -228 230 -252 279 -38 77 -76 177 -76 201 0 14 -5 36 -11
47 -6 11 -14 50 -17 86 -7 65 -20 84 -39 60z"/>
</g>
</svg>
